<?xml version="1.0" encoding="UTF-8"?>
<svg id="Layer_1" data-name="Layer 1" xmlns="http://www.w3.org/2000/svg" viewBox="0 0 12 12">
  <defs>
    <style>
      .cls-1 {
        fill: #e3e3e3;
      }
    </style>
  </defs>
  <path class="cls-1" d="M5.84,11.01c-.69,0-1.34-.13-1.95-.39s-1.14-.62-1.59-1.07-.81-.99-1.07-1.59-.39-1.25-.39-1.94c0-1.31.43-2.43,1.3-3.38.87-.94,1.93-1.48,3.2-1.6v1.5c-.86.12-1.57.5-2.14,1.16-.57.65-.86,1.43-.86,2.32,0,.97.34,1.79,1.02,2.48.68.68,1.51,1.02,2.48,1.02.55,0,1.06-.12,1.54-.35s.88-.55,1.21-.95l1.3.75c-.45.62-1.03,1.12-1.74,1.49-.71.37-1.48.56-2.31.56ZM10.41,8.03l-1.3-.75c.07-.2.13-.41.17-.62s.06-.43.06-.66c0-.89-.29-1.66-.86-2.32s-1.29-1.04-2.14-1.16v-1.5c1.27.12,2.33.66,3.2,1.6s1.3,2.07,1.3,3.38c0,.37-.03.72-.1,1.06s-.17.66-.33.96Z"/>
</svg>